<mxfile host="app.diagrams.net" modified="2021-06-03T18:53:42.425Z" agent="5.0 (Windows NT 10.0; Win64; x64) AppleWebKit/537.36 (KHTML, like Gecko) Chrome/91.0.4472.77 Safari/537.36 Edg/91.0.864.37" etag="-m0dCKlm0s-y8z4rHg-X" version="14.7.4" type="github">
  <diagram id="nHerXVLHT5hYtG79l8Ip" name="Page-1">
    <mxGraphModel dx="780" dy="1137" grid="1" gridSize="10" guides="1" tooltips="1" connect="1" arrows="1" fold="1" page="1" pageScale="1" pageWidth="850" pageHeight="1100" math="0" shadow="0">
      <root>
        <mxCell id="0" />
        <mxCell id="1" parent="0" />
        <mxCell id="WXbgmeaAXBa5pSzOtmdg-1" value="DocumentSharing System - need a document, a user,sharing, edit andcreate&lt;br&gt;" style="text;html=1;strokeColor=none;fillColor=none;align=center;verticalAlign=middle;whiteSpace=wrap;rounded=0;" vertex="1" parent="1">
          <mxGeometry y="10" width="770" height="150" as="geometry" />
        </mxCell>
        <mxCell id="WXbgmeaAXBa5pSzOtmdg-2" value="User&lt;br&gt;--&lt;br&gt;Identifying information&lt;br&gt;Login information&lt;br&gt;Status information" style="rounded=0;whiteSpace=wrap;html=1;" vertex="1" parent="1">
          <mxGeometry x="40" y="160" width="160" height="190" as="geometry" />
        </mxCell>
        <mxCell id="WXbgmeaAXBa5pSzOtmdg-3" value="Document&lt;br&gt;--&lt;br&gt;has a Creator/Owner user (id)&lt;br&gt;Content (text/media)&lt;br&gt;Created&lt;br&gt;Edited&lt;br&gt;&lt;br&gt;// ? who made changes&lt;br&gt;// who Can view/edit" style="rounded=0;whiteSpace=wrap;html=1;" vertex="1" parent="1">
          <mxGeometry x="230" y="160" width="160" height="180" as="geometry" />
        </mxCell>
        <mxCell id="WXbgmeaAXBa5pSzOtmdg-4" value="permissions object&lt;br&gt;--&lt;br&gt;document id&lt;br&gt;user id&lt;br&gt;permissions level" style="whiteSpace=wrap;html=1;aspect=fixed;" vertex="1" parent="1">
          <mxGeometry x="410" y="160" width="126" height="126" as="geometry" />
        </mxCell>
        <mxCell id="WXbgmeaAXBa5pSzOtmdg-5" value="Changes?" style="rounded=0;whiteSpace=wrap;html=1;" vertex="1" parent="1">
          <mxGeometry x="230" y="360" width="120" height="60" as="geometry" />
        </mxCell>
        <mxCell id="WXbgmeaAXBa5pSzOtmdg-6" value="Get my documents&lt;br&gt;Get documents I can access&lt;br&gt;&lt;br&gt;Create new document&lt;br&gt;Edit existing document&lt;br&gt;View document&lt;br&gt;? Download document (conversion)&lt;br&gt;? Upload document (conversion)&lt;br&gt;&lt;br&gt;Share document (? by link?)" style="text;html=1;strokeColor=none;fillColor=none;align=center;verticalAlign=middle;whiteSpace=wrap;rounded=0;" vertex="1" parent="1">
          <mxGeometry x="280" y="255" width="480" height="270" as="geometry" />
        </mxCell>
        <mxCell id="WXbgmeaAXBa5pSzOtmdg-7" style="edgeStyle=orthogonalEdgeStyle;rounded=0;orthogonalLoop=1;jettySize=auto;html=1;exitX=0.5;exitY=1;exitDx=0;exitDy=0;" edge="1" parent="1" source="WXbgmeaAXBa5pSzOtmdg-6" target="WXbgmeaAXBa5pSzOtmdg-6">
          <mxGeometry relative="1" as="geometry" />
        </mxCell>
        <mxCell id="WXbgmeaAXBa5pSzOtmdg-8" value="Database for Objects" style="shape=cylinder3;whiteSpace=wrap;html=1;boundedLbl=1;backgroundOutline=1;size=15;" vertex="1" parent="1">
          <mxGeometry x="590" y="740" width="170" height="160" as="geometry" />
        </mxCell>
        <mxCell id="WXbgmeaAXBa5pSzOtmdg-22" style="edgeStyle=orthogonalEdgeStyle;rounded=0;orthogonalLoop=1;jettySize=auto;html=1;exitX=0.5;exitY=0.5;exitDx=0;exitDy=0;exitPerimeter=0;entryX=0.5;entryY=1;entryDx=0;entryDy=0;startArrow=classicThin;startFill=1;" edge="1" parent="1" source="WXbgmeaAXBa5pSzOtmdg-10" target="WXbgmeaAXBa5pSzOtmdg-29">
          <mxGeometry relative="1" as="geometry" />
        </mxCell>
        <mxCell id="WXbgmeaAXBa5pSzOtmdg-10" value="Actor" style="shape=umlActor;verticalLabelPosition=bottom;verticalAlign=top;html=1;outlineConnect=0;" vertex="1" parent="1">
          <mxGeometry x="40" y="630" width="60" height="110" as="geometry" />
        </mxCell>
        <mxCell id="WXbgmeaAXBa5pSzOtmdg-11" value="Actor" style="shape=umlActor;verticalLabelPosition=bottom;verticalAlign=top;html=1;outlineConnect=0;" vertex="1" parent="1">
          <mxGeometry y="380" width="60" height="110" as="geometry" />
        </mxCell>
        <mxCell id="WXbgmeaAXBa5pSzOtmdg-13" value="API Facade" style="rounded=0;whiteSpace=wrap;html=1;" vertex="1" parent="1">
          <mxGeometry x="215" y="500" width="120" height="210" as="geometry" />
        </mxCell>
        <mxCell id="WXbgmeaAXBa5pSzOtmdg-18" style="edgeStyle=orthogonalEdgeStyle;rounded=0;orthogonalLoop=1;jettySize=auto;html=1;startArrow=none;startFill=1;" edge="1" parent="1" source="WXbgmeaAXBa5pSzOtmdg-24" target="WXbgmeaAXBa5pSzOtmdg-13">
          <mxGeometry relative="1" as="geometry">
            <mxPoint x="360" y="530" as="targetPoint" />
          </mxGeometry>
        </mxCell>
        <mxCell id="WXbgmeaAXBa5pSzOtmdg-21" style="edgeStyle=orthogonalEdgeStyle;rounded=0;orthogonalLoop=1;jettySize=auto;html=1;startArrow=classicThin;startFill=1;" edge="1" parent="1" source="WXbgmeaAXBa5pSzOtmdg-14" target="WXbgmeaAXBa5pSzOtmdg-8">
          <mxGeometry relative="1" as="geometry" />
        </mxCell>
        <mxCell id="WXbgmeaAXBa5pSzOtmdg-14" value="User Service" style="rounded=0;whiteSpace=wrap;html=1;" vertex="1" parent="1">
          <mxGeometry x="590" y="500" width="120" height="60" as="geometry" />
        </mxCell>
        <mxCell id="WXbgmeaAXBa5pSzOtmdg-19" style="edgeStyle=orthogonalEdgeStyle;rounded=0;orthogonalLoop=1;jettySize=auto;html=1;exitX=0;exitY=0.5;exitDx=0;exitDy=0;entryX=1;entryY=0.648;entryDx=0;entryDy=0;entryPerimeter=0;startArrow=classicThin;startFill=1;" edge="1" parent="1" source="WXbgmeaAXBa5pSzOtmdg-15" target="WXbgmeaAXBa5pSzOtmdg-13">
          <mxGeometry relative="1" as="geometry" />
        </mxCell>
        <mxCell id="WXbgmeaAXBa5pSzOtmdg-20" style="edgeStyle=orthogonalEdgeStyle;rounded=0;orthogonalLoop=1;jettySize=auto;html=1;startArrow=classicThin;startFill=1;" edge="1" parent="1" source="WXbgmeaAXBa5pSzOtmdg-15" target="WXbgmeaAXBa5pSzOtmdg-8">
          <mxGeometry relative="1" as="geometry">
            <Array as="points">
              <mxPoint x="473" y="770" />
            </Array>
          </mxGeometry>
        </mxCell>
        <mxCell id="WXbgmeaAXBa5pSzOtmdg-15" value="Document Service (incl. Permissions)" style="rounded=0;whiteSpace=wrap;html=1;" vertex="1" parent="1">
          <mxGeometry x="413" y="650" width="120" height="60" as="geometry" />
        </mxCell>
        <mxCell id="WXbgmeaAXBa5pSzOtmdg-16" value="" style="endArrow=classic;html=1;entryX=-0.017;entryY=0.214;entryDx=0;entryDy=0;entryPerimeter=0;startArrow=none;" edge="1" parent="1" source="WXbgmeaAXBa5pSzOtmdg-29" target="WXbgmeaAXBa5pSzOtmdg-13">
          <mxGeometry width="50" height="50" relative="1" as="geometry">
            <mxPoint x="360" y="510" as="sourcePoint" />
            <mxPoint x="410" y="460" as="targetPoint" />
          </mxGeometry>
        </mxCell>
        <mxCell id="WXbgmeaAXBa5pSzOtmdg-23" value="Given a Connected/Validated User, I need to provide a list of Documents accessible to them.&lt;br&gt;Front End -&amp;gt; Doc Svc (given User ID, what docs can I see &amp;amp; permissions associated)&lt;br&gt;DocumentAndPermissions getDocumentsForUser( userId )&lt;br&gt;SELECT document_id, perm_level FROM PERMISSIONS WHERE user_id = ?&lt;br&gt;getDocument( userId, docId )" style="text;html=1;strokeColor=none;fillColor=none;align=center;verticalAlign=middle;whiteSpace=wrap;rounded=0;" vertex="1" parent="1">
          <mxGeometry x="80" y="790" width="390" height="280" as="geometry" />
        </mxCell>
        <mxCell id="WXbgmeaAXBa5pSzOtmdg-24" value="Auth Service" style="ellipse;whiteSpace=wrap;html=1;" vertex="1" parent="1">
          <mxGeometry x="390" y="485" width="120" height="80" as="geometry" />
        </mxCell>
        <mxCell id="WXbgmeaAXBa5pSzOtmdg-25" value="" style="edgeStyle=orthogonalEdgeStyle;rounded=0;orthogonalLoop=1;jettySize=auto;html=1;startArrow=classicThin;startFill=1;endArrow=none;" edge="1" parent="1" source="WXbgmeaAXBa5pSzOtmdg-14" target="WXbgmeaAXBa5pSzOtmdg-24">
          <mxGeometry relative="1" as="geometry">
            <mxPoint x="350" y="605" as="targetPoint" />
            <mxPoint x="480" y="520" as="sourcePoint" />
          </mxGeometry>
        </mxCell>
        <mxCell id="WXbgmeaAXBa5pSzOtmdg-29" value="Front End&lt;br&gt;" style="rounded=0;whiteSpace=wrap;html=1;" vertex="1" parent="1">
          <mxGeometry x="80" y="505" width="120" height="60" as="geometry" />
        </mxCell>
        <mxCell id="WXbgmeaAXBa5pSzOtmdg-30" value="" style="endArrow=none;html=1;entryX=-0.017;entryY=0.214;entryDx=0;entryDy=0;entryPerimeter=0;" edge="1" parent="1" source="WXbgmeaAXBa5pSzOtmdg-11" target="WXbgmeaAXBa5pSzOtmdg-29">
          <mxGeometry width="50" height="50" relative="1" as="geometry">
            <mxPoint x="90" y="537.1614960858219" as="sourcePoint" />
            <mxPoint x="197.96000000000004" y="544.94" as="targetPoint" />
          </mxGeometry>
        </mxCell>
      </root>
    </mxGraphModel>
  </diagram>
</mxfile>
